<svg width="165" height="125" viewBox="0 0 165 125" fill="none" xmlns="http://www.w3.org/2000/svg">
<path d="M94.5532 7.80294H64.8715V2.29498C64.8715 1.07099 63.8005 0 62.5765 0H34.2717C33.0477 0 31.9767 1.07099 31.9767 2.29498V7.80294H2.29498C1.07099 7.80294 0 8.87393 0 10.0979V122.705C0 123.929 1.07099 125 2.29498 125H94.4003C95.6242 125 96.6952 123.929 96.6952 122.705V10.0979C96.8482 8.72093 95.9302 7.80294 94.5532 7.80294ZM36.7197 4.58996H60.4345V13.9229H36.7197V4.58996ZM92.2583 120.41H4.74296V12.3929H32.1298V16.2179C32.1298 17.4419 33.2007 18.5129 34.4247 18.5129H62.7295C63.9535 18.5129 65.0245 17.4419 65.0245 16.2179V12.3929H92.4113V120.41H92.2583Z" fill="#2F4395"/>
<path d="M21.8789 43.1445H13.0049C11.781 43.1445 10.71 44.2155 10.71 45.4395C10.71 46.6635 11.781 47.7345 13.0049 47.7345H21.8789C23.1029 47.7345 24.1739 46.6635 24.1739 45.4395C24.1739 44.2155 23.1029 43.1445 21.8789 43.1445Z" fill="#2F4395"/>
<path d="M30.5997 45.4395C30.5997 46.6635 31.6707 47.7345 32.8947 47.7345H84.1493C85.3733 47.7345 86.4443 46.6635 86.4443 45.4395C86.4443 44.2155 85.3733 43.1445 84.1493 43.1445H32.8947C31.5177 43.1445 30.5997 44.2155 30.5997 45.4395Z" fill="#2F4395"/>
<path d="M21.8789 63.6484H13.0049C11.781 63.6484 10.71 64.7194 10.71 65.9434C10.71 67.1674 11.781 68.2384 13.0049 68.2384H21.8789C23.1029 68.2384 24.1739 67.1674 24.1739 65.9434C24.1739 64.7194 23.1029 63.6484 21.8789 63.6484Z" fill="#2F4395"/>
<path d="M83.9963 63.6484H32.7418C31.5178 63.6484 30.4468 64.7194 30.4468 65.9434C30.4468 67.1674 31.5178 68.2384 32.7418 68.2384H83.9963C85.2203 68.2384 86.2913 67.1674 86.2913 65.9434C86.2913 64.7194 85.2203 63.6484 83.9963 63.6484Z" fill="#2F4395"/>
<path d="M21.8789 84.1484H13.0049C11.781 84.1484 10.71 85.2194 10.71 86.4434C10.71 87.6674 11.781 88.7384 13.0049 88.7384H21.8789C23.1029 88.7384 24.1739 87.6674 24.1739 86.4434C24.1739 85.2194 23.1029 84.1484 21.8789 84.1484Z" fill="#2F4395"/>
<path d="M83.9963 84.1484H32.7418C31.5178 84.1484 30.4468 85.2194 30.4468 86.4434C30.4468 87.6674 31.5178 88.7384 32.7418 88.7384H83.9963C85.2203 88.7384 86.2913 87.6674 86.2913 86.4434C86.2913 85.2194 85.2203 84.1484 83.9963 84.1484Z" fill="#2F4395"/>
<rect x="72" y="65" width="90.5246" height="58" rx="6" fill="#ECD1BE" stroke="#2F4395" stroke-width="4"/>
<mask id="path-9-inside-1_30_2" fill="white">
<path d="M157.41 63H77.318C73.2525 63 70 66.2525 70 70.318V75.1967V85.7672V117.58C70 121.646 73.2525 124.898 77.318 124.898H157.41C161.475 124.898 164.728 121.646 164.728 117.58V85.7672V75.1967V70.318C164.728 66.2525 161.475 63 157.41 63ZM73.0492 70.318C73.0492 67.9803 74.9803 66.0492 77.318 66.0492H157.41C159.748 66.0492 161.679 67.9803 161.679 70.318V73.6721H73.0492V70.318ZM161.679 117.58C161.679 119.918 159.748 121.849 157.41 121.849H77.318C74.9803 121.849 73.0492 119.918 73.0492 117.58V87.2918H161.679V117.58ZM161.679 84.2426H73.0492V76.7213H161.679V84.2426Z"/>
</mask>
<path d="M157.41 63H77.318C73.2525 63 70 66.2525 70 70.318V75.1967V85.7672V117.58C70 121.646 73.2525 124.898 77.318 124.898H157.41C161.475 124.898 164.728 121.646 164.728 117.58V85.7672V75.1967V70.318C164.728 66.2525 161.475 63 157.41 63ZM73.0492 70.318C73.0492 67.9803 74.9803 66.0492 77.318 66.0492H157.41C159.748 66.0492 161.679 67.9803 161.679 70.318V73.6721H73.0492V70.318ZM161.679 117.58C161.679 119.918 159.748 121.849 157.41 121.849H77.318C74.9803 121.849 73.0492 119.918 73.0492 117.58V87.2918H161.679V117.58ZM161.679 84.2426H73.0492V76.7213H161.679V84.2426Z" fill="#2F4395"/>
<path d="M161.679 73.6721V77.6721H165.679V73.6721H161.679ZM73.0492 73.6721H69.0492V77.6721H73.0492V73.6721ZM73.0492 87.2918V83.2918H69.0492V87.2918H73.0492ZM161.679 87.2918H165.679V83.2918H161.679V87.2918ZM161.679 84.2426V88.2426H165.679V84.2426H161.679ZM73.0492 84.2426H69.0492V88.2426H73.0492V84.2426ZM73.0492 76.7213V72.7213H69.0492V76.7213H73.0492ZM161.679 76.7213H165.679V72.7213H161.679V76.7213ZM157.41 59H77.318V67H157.41V59ZM77.318 59C71.0433 59 66 64.0433 66 70.318H74C74 68.4616 75.4616 67 77.318 67V59ZM66 70.318V75.1967H74V70.318H66ZM66 75.1967V85.7672H74V75.1967H66ZM66 85.7672V117.58H74V85.7672H66ZM66 117.58C66 123.855 71.0433 128.898 77.318 128.898V120.898C75.4616 120.898 74 119.437 74 117.58H66ZM77.318 128.898H157.41V120.898H77.318V128.898ZM157.41 128.898C163.685 128.898 168.728 123.855 168.728 117.58H160.728C160.728 119.437 159.266 120.898 157.41 120.898V128.898ZM168.728 117.58V85.7672H160.728V117.58H168.728ZM168.728 85.7672V75.1967H160.728V85.7672H168.728ZM168.728 75.1967V70.318H160.728V75.1967H168.728ZM168.728 70.318C168.728 64.0433 163.685 59 157.41 59V67C159.266 67 160.728 68.4616 160.728 70.318H168.728ZM77.0492 70.318C77.0492 70.2709 77.0664 70.2044 77.1354 70.1354C77.2044 70.0664 77.2709 70.0492 77.318 70.0492V62.0492C72.7712 62.0492 69.0492 65.7712 69.0492 70.318H77.0492ZM77.318 70.0492H157.41V62.0492H77.318V70.0492ZM157.41 70.0492C157.457 70.0492 157.523 70.0663 157.592 70.1354C157.662 70.2044 157.679 70.2709 157.679 70.318H165.679C165.679 65.7712 161.957 62.0492 157.41 62.0492V70.0492ZM157.679 70.318V73.6721H165.679V70.318H157.679ZM161.679 69.6721H73.0492V77.6721H161.679V69.6721ZM77.0492 73.6721V70.318H69.0492V73.6721H77.0492ZM157.679 117.58C157.679 117.627 157.662 117.694 157.592 117.763C157.523 117.832 157.457 117.849 157.41 117.849V125.849C161.957 125.849 165.679 122.127 165.679 117.58H157.679ZM157.41 117.849H77.318V125.849H157.41V117.849ZM77.318 117.849C77.271 117.849 77.2044 117.832 77.1354 117.763C77.0664 117.694 77.0492 117.627 77.0492 117.58H69.0492C69.0492 122.127 72.7712 125.849 77.318 125.849V117.849ZM77.0492 117.58V87.2918H69.0492V117.58H77.0492ZM73.0492 91.2918H161.679V83.2918H73.0492V91.2918ZM157.679 87.2918V117.58H165.679V87.2918H157.679ZM161.679 80.2426H73.0492V88.2426H161.679V80.2426ZM77.0492 84.2426V76.7213H69.0492V84.2426H77.0492ZM73.0492 80.7213H161.679V72.7213H73.0492V80.7213ZM157.679 76.7213V84.2426H165.679V76.7213H157.679Z" fill="#2F4395" mask="url(#path-9-inside-1_30_2)"/>
<mask id="path-11-inside-2_30_2" fill="white">
<path d="M84.7378 115.856C87.6853 115.856 90.023 113.518 90.023 110.57C90.023 107.623 87.6853 105.285 84.7378 105.285C81.7902 105.285 79.4525 107.623 79.4525 110.57C79.4525 113.518 81.7902 115.856 84.7378 115.856ZM84.7378 108.334C85.9574 108.334 86.9738 109.351 86.9738 110.57C86.9738 111.79 85.9574 112.806 84.7378 112.806C83.5181 112.806 82.5017 111.79 82.5017 110.57C82.5017 109.351 83.5181 108.334 84.7378 108.334Z"/>
</mask>
<path d="M84.7378 115.856C87.6853 115.856 90.023 113.518 90.023 110.57C90.023 107.623 87.6853 105.285 84.7378 105.285C81.7902 105.285 79.4525 107.623 79.4525 110.57C79.4525 113.518 81.7902 115.856 84.7378 115.856ZM84.7378 108.334C85.9574 108.334 86.9738 109.351 86.9738 110.57C86.9738 111.79 85.9574 112.806 84.7378 112.806C83.5181 112.806 82.5017 111.79 82.5017 110.57C82.5017 109.351 83.5181 108.334 84.7378 108.334Z" fill="#2F4395"/>
<path d="M84.7378 119.856C89.8944 119.856 94.023 115.727 94.023 110.57H86.023C86.023 111.309 85.4762 111.856 84.7378 111.856V119.856ZM94.023 110.57C94.023 105.414 89.8944 101.285 84.7378 101.285V109.285C85.4762 109.285 86.023 109.832 86.023 110.57H94.023ZM84.7378 101.285C79.5811 101.285 75.4525 105.414 75.4525 110.57H83.4525C83.4525 109.832 83.9994 109.285 84.7378 109.285V101.285ZM75.4525 110.57C75.4525 115.727 79.5811 119.856 84.7378 119.856V111.856C83.9994 111.856 83.4525 111.309 83.4525 110.57H75.4525ZM84.7378 112.334C83.7483 112.334 82.9738 111.56 82.9738 110.57H90.9738C90.9738 107.142 88.1666 104.334 84.7378 104.334V112.334ZM82.9738 110.57C82.9738 109.581 83.7483 108.806 84.7378 108.806V116.806C88.1666 116.806 90.9738 113.999 90.9738 110.57H82.9738ZM84.7378 108.806C85.7272 108.806 86.5017 109.581 86.5017 110.57H78.5017C78.5017 113.999 81.3089 116.806 84.7378 116.806V108.806ZM86.5017 110.57C86.5017 111.56 85.7272 112.334 84.7378 112.334V104.334C81.3089 104.334 78.5017 107.142 78.5017 110.57H86.5017Z" fill="#2F4395" mask="url(#path-11-inside-2_30_2)"/>
<mask id="path-13-inside-3_30_2" fill="white">
<path d="M96.1213 112.295H139.115C139.928 112.295 140.639 111.584 140.639 110.771C140.639 109.958 139.928 109.246 139.115 109.246H96.1213C95.3082 109.246 94.5967 109.958 94.5967 110.771C94.5967 111.584 95.3082 112.295 96.1213 112.295Z"/>
</mask>
<path d="M96.1213 112.295H139.115C139.928 112.295 140.639 111.584 140.639 110.771C140.639 109.958 139.928 109.246 139.115 109.246H96.1213C95.3082 109.246 94.5967 109.958 94.5967 110.771C94.5967 111.584 95.3082 112.295 96.1213 112.295Z" fill="#2F4395"/>
<path d="M96.1213 116.295H139.115V108.295H96.1213V116.295ZM139.115 116.295C142.137 116.295 144.639 113.793 144.639 110.771H136.639C136.639 110 136.969 109.394 137.353 109.009C137.738 108.625 138.344 108.295 139.115 108.295V116.295ZM144.639 110.771C144.639 107.748 142.137 105.246 139.115 105.246V113.246C138.344 113.246 137.738 112.916 137.353 112.532C136.969 112.148 136.639 111.541 136.639 110.771H144.639ZM139.115 105.246H96.1213V113.246H139.115V105.246ZM96.1213 105.246C93.099 105.246 90.5967 107.748 90.5967 110.771H98.5967C98.5967 111.541 98.2668 112.148 97.8825 112.532C97.4982 112.916 96.8917 113.246 96.1213 113.246V105.246ZM90.5967 110.771C90.5967 113.793 93.099 116.295 96.1213 116.295V108.295C96.8917 108.295 97.4982 108.625 97.8825 109.009C98.2668 109.394 98.5967 110 98.5967 110.771H90.5967Z" fill="#2F4395" mask="url(#path-13-inside-3_30_2)"/>
</svg>
