<svg width="139" height="125" viewBox="0 0 139 125" fill="none" xmlns="http://www.w3.org/2000/svg">
<path d="M135.841 92.477H109.724V72.4376H135.348C136.662 72.4376 137.812 71.2878 137.812 69.9737V42.3784C137.812 41.0644 136.662 39.9146 135.348 39.9146H110.053V16.2615C110.053 14.9474 108.903 13.7976 107.589 13.7976H42.707V2.46386C42.707 1.1498 41.7214 0 40.2431 0H2.46386C1.1498 0 0 1.1498 0 2.46386V30.0591C0 31.3732 1.1498 32.523 2.46386 32.523H18.8896V48.456L19.3824 76.0512V91.9842H2.95664C1.64258 91.9842 0.492773 93.134 0.492773 94.4481V122.043C0.492773 123.357 1.64258 124.507 2.95664 124.507H40.7359C42.0499 124.507 43.1997 123.357 43.1997 122.043V94.4481C43.1997 93.134 42.0499 91.9842 40.7359 91.9842H24.3101V76.0512L23.8173 48.456V32.523H40.2431C41.5572 32.523 42.707 31.3732 42.707 30.0591V18.7254H105.125V39.9146H62.4179C61.1038 39.9146 59.954 41.0644 59.954 42.3784V69.9737C59.954 71.2878 61.1038 72.4376 62.4179 72.4376H104.961V92.477H61.9251C60.611 92.477 59.4612 93.6268 59.4612 94.9409V122.536C59.4612 123.85 60.611 125 61.9251 125H135.677C136.991 125 138.141 123.85 138.141 122.536V94.9409C138.305 93.6268 137.155 92.477 135.841 92.477ZM38.4363 119.744H5.58476V96.912H38.4363V119.744ZM37.7792 27.5953H4.92773V4.92773H37.7792V27.5953ZM64.7175 44.8423H132.884V67.5099H64.7175V44.8423ZM133.377 120.072H64.389V97.4047H133.213V120.072H133.377Z" fill="#20723B"/>
</svg>
