<svg width="181" height="125" viewBox="0 0 181 125" fill="none" xmlns="http://www.w3.org/2000/svg">
<path d="M180.407 64.0977C179.655 62.782 177.963 62.0301 176.647 62.782L156.723 72.5564L143.189 78.3835C141.121 77.8195 135.67 76.5038 130.971 75L128.527 74.0602C128.151 73.8722 127.775 73.8722 127.399 73.8722C125.708 73.3083 124.204 72.7444 123.264 72.3684C118.565 70.3008 110.106 65.4135 106.911 62.594C103.151 59.2105 93.1887 46.9925 93.0008 46.9925C92.2489 45.8647 90.7451 45.6767 89.4293 46.2406C86.6098 47.7444 77.7752 51.5038 73.076 50C70.6323 49.2481 65.9331 46.8045 64.8053 45.1128C63.8654 43.985 63.1135 40.2256 63.6775 39.0977C64.6173 38.5338 68.5647 39.2857 70.4444 39.4737C73.6399 40.0376 76.6474 40.6015 79.091 39.8496C83.6023 38.3459 92.8128 30.4511 95.0684 28.5714C97.3241 27.8195 108.226 24.0601 115.745 27.0677C119.692 28.5714 123.64 29.1353 127.211 29.1353C134.73 29.1353 140.369 26.5038 140.745 26.3158L168.377 11.4662C169.692 10.7143 170.256 9.02256 169.505 7.70677C168.753 6.39098 167.061 5.82707 165.745 6.57895L138.114 21.2406C137.926 21.2406 128.151 25.7519 117.813 21.6165C108.79 18.0451 97.1361 21.6165 93.5647 22.9323C89.6173 21.4286 78.5271 17.4812 73.6399 18.2331C69.1286 18.985 55.7827 19.5489 50.3316 18.609C48.2639 18.2331 30.7827 8.83459 15.7451 0.37594C14.4293 -0.37594 12.5496 0 11.7978 1.50376C11.0459 2.81955 11.6098 4.51128 12.9256 5.26316C22.888 10.9023 46.1962 23.8722 49.3917 24.4361C55.9707 25.7519 70.2564 24.812 74.7677 24.0602C77.0233 23.6842 83.0384 25.3759 88.3015 27.2556C84.3541 30.4511 79.6549 34.0226 77.5872 34.5865C76.4594 34.9624 73.8278 34.3985 71.5722 34.0226C67.0609 33.2707 62.5496 32.5188 59.7301 35.1504C56.7226 38.1579 58.6023 46.0526 60.6699 48.6842C62.9256 51.5038 68.5647 54.3233 71.7602 55.2632C77.7752 56.9549 86.2338 53.7594 90.1812 52.0677C93.1887 55.6391 99.9556 63.9098 103.339 66.7293C107.474 70.3008 116.685 75.5639 121.196 77.4436C122.888 78.1955 125.895 79.1353 129.091 80.0752L142.249 84.9624C143.001 85.3383 143.377 85.9023 143.753 87.0301C144.317 88.7218 144.317 90.9774 143.377 92.4812C142.437 94.5489 140.369 95.4887 138.302 95.3008C137.926 95.1128 137.55 94.9248 136.986 94.9248L119.129 85.7143C117.813 84.9624 116.121 85.5263 115.369 86.8421C114.617 88.1579 115.181 89.8496 116.497 90.6015L134.542 100H134.73C134.918 100.752 134.73 101.128 134.542 101.88C134.354 102.256 134.166 102.82 134.166 103.383C133.038 105.639 130.219 106.579 127.963 105.639L112.738 99.0602H112.55H112.362H112.174H111.986C111.798 99.0602 111.798 99.0602 111.61 99.0602H111.422H111.234H111.046C111.046 99.0602 110.858 99.0601 110.858 99.2481C110.858 99.2481 110.67 99.2481 110.67 99.4361L110.482 99.6241L110.294 99.812L110.106 100L109.918 100.188L109.73 100.376C109.73 100.376 109.73 100.564 109.542 100.564V100.752C109.542 100.94 109.542 100.94 109.542 101.128V101.316C109.542 101.504 109.542 101.504 109.542 101.692V101.88V102.068V102.256V102.444C109.542 102.444 109.542 102.632 109.73 102.632C109.73 102.632 109.73 102.82 109.918 102.82L110.106 103.008L110.294 103.195L110.482 103.383L110.67 103.571L110.858 103.759C110.858 103.759 111.046 103.759 111.046 103.947L114.993 106.015C117.437 107.143 118.377 109.962 117.249 112.406C116.685 113.534 115.745 114.474 114.429 114.85C113.302 115.226 111.986 115.226 110.858 114.662L99.5797 109.211L102.775 103.759C105.971 98.4962 104.091 91.7293 98.8278 88.5338C96.5722 87.218 93.7526 86.6541 91.309 87.218C91.8729 82.1429 89.6173 77.0677 84.9181 74.4361C80.4068 71.8045 74.9557 72.1805 70.8203 75C70.0684 72.5564 68.3767 70.3008 65.9331 68.985C60.6699 65.7895 53.715 67.6692 50.7075 72.9323L43.1887 85.7143L24.7677 72.5564C24.7677 72.5564 24.5797 72.5564 24.5797 72.3684C24.5797 72.3684 24.3917 72.3684 24.3917 72.1805L4.09099 62.782C2.7752 62.0301 1.08347 62.594 0.331588 64.0977C-0.420292 65.4135 0.143618 67.1053 1.64738 67.8571L21.3842 77.4436L40.3692 90.9774C38.8654 95.8647 40.9331 101.128 45.4444 103.759C47.1361 104.887 49.2038 105.263 51.0835 105.263C51.6474 105.263 52.3993 105.263 52.9632 105.075C52.3993 110.15 54.6549 115.226 59.3541 118.045C61.4218 119.173 63.6775 119.925 65.9331 119.925C67.0609 119.925 68.3767 119.737 69.5045 119.361C71.0083 118.985 72.3241 118.421 73.4519 117.481C74.2038 119.925 75.8955 121.992 78.3391 123.496C80.0308 124.624 82.0985 125 83.9782 125C87.7376 125 91.497 123.12 93.5647 119.549L96.5722 114.474L108.414 120.113C109.918 120.865 111.422 121.053 112.926 121.053C114.053 121.053 115.369 120.865 116.497 120.489C119.129 119.549 121.196 117.669 122.512 115.038C123.264 113.346 123.64 111.466 123.452 109.586L126.271 110.902C127.587 111.466 129.091 111.842 130.407 111.842C134.542 111.842 138.302 109.398 139.993 105.451C140.181 105.075 140.181 104.699 140.181 104.323C140.181 104.135 140.369 103.947 140.369 103.759C140.557 103.008 140.933 102.256 140.933 101.128C144.317 100.564 147.324 98.4962 149.016 95.3008C150.52 92.2932 150.708 88.5338 149.58 85.5263C149.204 84.3985 148.64 83.6466 148.076 82.7068L159.542 77.8196L179.467 68.0451C180.595 67.2932 181.159 65.6015 180.407 64.0977ZM48.2639 99.0602C45.6323 97.5564 44.6925 94.1729 46.3842 91.5414L55.5947 76.1278C56.5346 74.4361 58.4143 73.4962 60.294 73.4962C61.2338 73.4962 62.1737 73.6842 63.1135 74.2481C65.7451 75.7519 66.497 79.1353 64.9932 81.7669L55.7827 97.1805C54.091 99.812 50.7075 100.564 48.2639 99.0602ZM67.8128 114.098C65.7451 114.662 63.6775 114.286 61.9857 113.346C58.4143 111.278 57.2865 106.391 59.3541 102.632L71.1963 82.7068C72.7 80.2632 75.3316 78.7594 77.9632 78.7594C79.279 78.7594 80.5947 79.1353 81.7226 79.6993C85.294 81.7669 86.4218 86.6541 84.1662 90.4135L72.3241 110.338C71.3842 112.218 69.6925 113.534 67.8128 114.098ZM88.4895 116.917C86.9857 119.549 83.6023 120.301 80.9707 118.797C78.3391 117.293 77.3993 113.91 79.091 111.278L88.1135 95.8647C89.0534 94.1729 90.9331 93.2331 92.8128 93.2331C93.7526 93.2331 94.6925 93.4211 95.6323 93.985C98.2639 95.4887 99.0158 98.8722 97.512 101.504L93.7526 108.083C93.0008 108.271 92.2489 108.835 91.8729 109.586C91.497 110.15 91.497 110.902 91.685 111.466L88.4895 116.917Z" fill="#EC5430"/>
</svg>
