<svg width="27" height="18" viewBox="0 0 27 18" fill="none" xmlns="http://www.w3.org/2000/svg">
<path d="M26.2768 1.30127C26.2467 1.24102 26.2165 1.18076 26.1864 1.15064C26.1563 1.12051 26.096 1.09038 26.0659 1.06025C26.0056 1.03013 25.9755 1 25.9153 1H1.42178C1.36153 1 1.3314 1.03013 1.27115 1.03013C1.21089 1.06025 1.18076 1.09038 1.12051 1.12051C1.09038 1.18076 1.06025 1.24102 1.03013 1.30127C1 1.36153 1 1.39165 1 1.45191V17.1181C1 17.3591 1.21089 17.57 1.45191 17.57H25.855C26.096 17.57 26.3069 17.3591 26.3069 17.1181V1.45191C26.3069 1.39165 26.3069 1.3314 26.2768 1.30127ZM25.4031 15.9431L17.9617 9.285L25.4031 2.47624V15.9431ZM1.90382 2.47624L9.13436 9.07411L1.90382 15.7624V2.47624ZM16.9675 8.92347C16.9373 8.92347 16.9373 8.9536 16.9072 8.9536V8.98373L13.6535 11.9663L2.62687 1.90382H24.7102L16.9675 8.92347ZM9.79716 9.67665L13.3522 12.9304C13.5329 13.081 13.774 13.081 13.9547 12.9304L17.2687 9.88755L24.8608 16.6662H2.26535L9.79716 9.67665Z" fill="#221F20" stroke="#221F20" stroke-width="0.3"/>
</svg>
