<svg width="24" height="24" viewBox="0 0 24 24" fill="none" xmlns="http://www.w3.org/2000/svg">
<path fill-rule="evenodd" clip-rule="evenodd" d="M16.1378 0H7.33536C3.28477 0 0 3.29837 0 7.36572V16.2046C0 20.2719 3.28477 23.5703 7.33536 23.5703H16.1378C20.1884 23.5703 23.4731 20.2719 23.4731 16.2046V7.36572C23.4731 3.29837 20.1884 0 16.1378 0ZM21.2725 16.2046C21.2725 19.0478 18.9692 21.3606 16.1378 21.3606H7.33536C4.50391 21.3606 2.20061 19.0478 2.20061 16.2046V7.36572C2.20061 4.52255 4.50391 2.20972 7.33536 2.20972H16.1378C18.9692 2.20972 21.2725 4.52255 21.2725 7.36572V16.2046ZM11.7365 5.89258C8.49578 5.89258 5.86829 8.53098 5.86829 11.7852C5.86829 15.0393 8.49578 17.6777 11.7365 17.6777C14.9772 17.6777 17.6047 15.0393 17.6047 11.7852C17.6047 8.53098 14.9772 5.89258 11.7365 5.89258ZM11.7365 15.468C9.71491 15.468 8.06887 13.8151 8.06887 11.7852C8.06887 9.75369 9.71491 8.10229 11.7365 8.10229C13.7581 8.10229 15.4042 9.75369 15.4042 11.7852C15.4042 13.8151 13.7581 15.468 11.7365 15.468ZM18.8268 5.45068C18.8268 5.88404 18.4767 6.23535 18.0448 6.23535C17.6129 6.23535 17.2628 5.88404 17.2628 5.45068C17.2628 5.01732 17.6129 4.66602 18.0448 4.66602C18.4767 4.66602 18.8268 5.01732 18.8268 5.45068Z" fill="white"/>
</svg>
