<svg width="25" height="24" viewBox="0 0 25 24" fill="none" xmlns="http://www.w3.org/2000/svg">
<path d="M24.6353 14.4261V23.5256H19.3531V15.0475C19.3531 12.9169 18.5985 11.4521 16.6899 11.4521C15.2251 11.4521 14.3817 12.4286 13.9822 13.4052C13.849 13.7603 13.8047 14.2041 13.8047 14.6924V23.57H8.52249C8.52249 23.57 8.61126 9.1883 8.52249 7.67911H13.8047V9.9429L13.7603 9.98729H13.8047V9.9429C14.5149 8.87759 15.7577 7.32401 18.5542 7.32401C22.0164 7.27962 24.6353 9.54341 24.6353 14.4261ZM2.97399 0C1.19847 0 0 1.19847 0 2.75205C0 4.26124 1.15409 5.50411 2.9296 5.50411H2.97399C4.83829 5.50411 5.94798 4.26124 5.94798 2.75205C5.9036 1.19847 4.7939 0 2.97399 0ZM0.310716 23.5256H5.59288V7.63473H0.310716V23.5256Z" fill="white"/>
</svg>
