<svg width="22" height="21" viewBox="0 0 22 21" fill="none" xmlns="http://www.w3.org/2000/svg">
<g clip-path="url(#clip0_143_10)">
<path d="M7.94696 6.26391H12.1714C12.343 6.26391 12.4816 6.40608 12.4816 6.58209V7.90898C12.8248 7.5231 13.2605 7.17107 13.7951 6.88673C14.5014 6.50762 15.3793 6.26391 16.4024 6.26391C18.7522 6.26391 20.1582 7.0289 20.9767 8.28809C21.7819 9.52697 21.9998 11.2194 21.9998 13.1285V20.6701C21.9998 20.8461 21.8612 20.9883 21.6895 20.9883H17.2869C17.1153 20.9883 16.9767 20.8461 16.9767 20.6701V13.9815C16.9767 13.2165 16.9701 12.3364 16.6994 11.6798C16.4552 11.084 15.9668 10.6508 14.9965 10.6508C13.98 10.6508 13.4057 11.0231 13.0823 11.585C12.739 12.1807 12.6598 13.0134 12.6598 13.8597V20.6633C12.6598 20.8393 12.5212 20.9815 12.3496 20.9815H7.94696C7.77534 20.9815 7.63673 20.8393 7.63673 20.6633V6.56855C7.63673 6.39254 7.77534 6.25037 7.94696 6.25037V6.26391ZM11.8612 6.90027H8.25719V20.3587H12.0328V13.8732C12.0328 12.9254 12.1318 11.9912 12.541 11.2736C12.9701 10.5221 13.7159 10.0212 14.9899 10.0212C16.277 10.0212 16.9305 10.6169 17.2671 11.4428C17.5839 12.2146 17.5905 13.1624 17.5905 13.9883V20.3587H21.3727V13.1353C21.3727 11.3413 21.1747 9.75714 20.4552 8.64689C19.7489 7.55695 18.508 6.90027 16.3958 6.90027C15.4783 6.90027 14.6994 7.11691 14.0724 7.4554C13.3199 7.85482 12.7918 8.41671 12.4948 8.9583C12.442 9.05308 12.343 9.12078 12.2242 9.12078H12.1648C11.9932 9.12078 11.8546 8.97861 11.8546 8.80259V6.90027H11.8612ZM5.20769 2.66236C5.20769 3.40027 4.91726 4.06372 4.44201 4.55114C3.97336 5.0318 3.3199 5.33644 2.60042 5.33644C1.88095 5.33644 1.23409 5.03857 0.758841 4.55114C0.290194 4.07049 -0.00683594 3.40027 -0.00683594 2.66236C-0.00683594 1.92445 0.283593 1.26101 0.758841 0.773581C1.22749 0.292923 1.88095 -0.0117188 2.60042 -0.0117188C3.3199 -0.0117188 3.96676 0.286154 4.44201 0.773581C4.91066 1.25424 5.20769 1.92445 5.20769 2.66236ZM4.00637 4.09757C4.3628 3.73199 4.58722 3.22426 4.58722 2.66236C4.58722 2.10047 4.3628 1.59273 4.00637 1.22716C3.64993 0.861589 3.15488 0.631415 2.60703 0.631415C2.05917 0.631415 1.56412 0.861589 1.20769 1.22716C0.85125 1.59273 0.626827 2.10047 0.626827 2.66236C0.626827 3.22426 0.85125 3.73199 1.20769 4.09757C1.56412 4.46314 2.05917 4.69331 2.60703 4.69331C3.15488 4.69331 3.64993 4.46314 4.00637 4.09757ZM0.316596 6.25714H4.89745C5.06907 6.25714 5.20769 6.39931 5.20769 6.57532V20.6701C5.20769 20.8461 5.06907 20.9883 4.89745 20.9883H0.316596C0.144979 20.9883 0.00636538 20.8461 0.00636538 20.6701V6.57532C0.00636538 6.39931 0.144979 6.25714 0.316596 6.25714ZM4.58722 6.8935H0.626827V20.3519H4.58722V6.8935Z" fill="#221F20"/>
</g>
<defs>
<clipPath id="clip0_143_10">
<rect width="22" height="21" fill="white"/>
</clipPath>
</defs>
</svg>
