<svg width="345" height="52" viewBox="0 0 345 52" fill="none" xmlns="http://www.w3.org/2000/svg">
<path d="M70.823 0L48.8486 52H61.0979L65.8491 40.165H83.5919L88.4173 52H100.815L78.6922 0H70.823ZM70.0064 29.8834L74.7576 18.1223L79.4346 29.8834H70.0064Z" fill="white"/>
<path d="M184.555 0H169.633L155.008 17.7525V0H143.353V52H155.008V32.6942L171.192 52H186.04L163.026 25.1494L184.555 0Z" fill="white"/>
<path d="M187.153 52H222.565V41.2006H198.809V30.3272H216.774V19.7496H198.809V10.7255H222.565V0H187.153V52Z" fill="white"/>
<path d="M225.089 10.7994H239.342V52H250.998V10.7994H265.251V0H225.089V10.7994Z" fill="white"/>
<path d="M267.998 52H303.484V41.2006H279.653V30.3272H297.693V19.7496H279.653V10.7255H303.484V0H267.998V52Z" fill="white"/>
<path d="M137.859 41.2006C136.3 41.2006 134.816 40.9047 133.554 40.3869C133.479 40.3869 133.479 40.3129 133.405 40.3129C133.331 40.3129 133.257 40.239 133.182 40.165C133.034 40.091 132.811 40.0171 132.663 39.9431C130.064 38.6856 128.06 36.6145 126.649 33.5818C129.767 32.6202 132.292 31.0669 134.296 28.9957C135.706 27.5903 136.746 25.8151 137.488 23.8919C138.231 21.9687 138.602 19.6017 138.602 16.8649C138.602 14.0541 138.082 11.5391 136.969 9.24609C133.999 3.10669 127.466 0 117.518 0H101.631V52H113.287V34.6913H114.994C116.256 39.0555 118.483 42.8279 121.527 45.8606C125.536 49.9289 130.51 52 136.3 52H140.235V41.2006H137.859ZM124.645 22.6344C123.16 23.8179 120.562 24.4836 117.073 24.4836H113.287V10.2816H117.592C119.374 10.2816 120.933 10.5036 122.121 10.8734C125.239 11.835 126.649 13.7582 126.649 17.1607C126.724 19.7496 126.056 21.5249 124.645 22.6344Z" fill="white"/>
<path d="M342.236 41.2006C340.677 41.2006 339.192 40.8307 337.93 40.3869C337.856 40.3869 337.856 40.3129 337.782 40.3129C337.707 40.3129 337.633 40.239 337.559 40.165C337.41 40.091 337.188 40.0171 337.039 39.9431C334.441 38.6856 332.436 36.6145 331.026 33.5818C334.144 32.6202 336.668 31.0669 338.672 28.9957C340.083 27.5903 341.122 25.8151 341.865 23.8919C342.607 21.9687 342.978 19.6017 342.978 16.8649C342.978 14.0541 342.459 11.5391 341.345 9.24609C338.375 3.10669 331.843 0 321.895 0H306.008V52H317.737V34.6913H319.445C320.707 39.0555 322.934 42.8279 325.978 45.8606C329.987 49.9289 334.961 52 340.751 52H344.686V41.2006H342.236ZM329.096 22.6344C327.611 23.8179 325.013 24.4836 321.523 24.4836H317.737V10.2816H322.043C323.825 10.2816 325.384 10.5036 326.572 10.8734C329.69 11.835 331.1 13.7582 331.1 17.1607C331.1 19.7496 330.432 21.5249 329.096 22.6344Z" fill="white"/>
<path d="M35.5599 1.55334C34.8917 8.5064 29.3981 11.6131 23.9045 11.6131C18.411 11.6131 12.8431 8.43243 12.2492 1.33144V0H0V52H12.3235V21.0071C15.7384 22.7824 19.673 23.744 23.9788 23.744C28.2846 23.744 32.2192 22.7824 35.6341 21.0071V52H47.9576V0H35.5599V1.55334Z" fill="white"/>
</svg>
