<svg width="24" height="25" viewBox="0 0 24 25" fill="none" xmlns="http://www.w3.org/2000/svg">
<path d="M9.2006 23.5886C10.3893 24.2424 11.5483 24.5693 12.6182 24.5693C13.5395 24.5693 14.3716 24.3315 15.1442 23.856L17.9377 22.1324C18.0269 22.073 18.1161 21.9838 18.1458 21.8649C18.1755 21.7461 18.1458 21.6272 18.0863 21.538L15.6792 17.6152C15.6197 17.5261 15.5306 17.4369 15.4117 17.4072C15.2928 17.3775 15.174 17.4072 15.0848 17.4666L12.2616 19.1903C11.8158 19.4578 11.2809 19.5469 10.7459 19.428C10.211 19.3092 9.76524 19.012 9.49778 18.5662L5.63442 12.4145C5.06977 11.523 5.36695 10.3343 6.2585 9.79934L9.17088 7.98653C9.37891 7.86766 9.43834 7.57047 9.31947 7.36245L6.88258 3.43965C6.76371 3.23162 6.46653 3.17218 6.2585 3.29105L3.37583 5.07415C0.106832 7.09498 0.225705 12.3551 3.6433 17.9124C5.21836 20.4385 7.17976 22.4593 9.2006 23.5886ZM3.82161 5.84682L6.34765 4.27175L8.30905 7.42188L5.78301 9.02667C4.47541 9.82906 4.05935 11.5527 4.86174 12.89L8.69539 19.1011C9.08173 19.7252 9.73553 20.171 10.5082 20.3493C11.2809 20.5276 12.0535 20.379 12.6776 19.9927L15.1145 18.4771L17.0759 21.6569L14.6687 23.1428C12.9154 24.2424 10.954 23.5589 9.61665 22.8456C7.74441 21.8055 5.87216 19.8738 4.38625 17.4666C1.26584 12.3551 1.0281 7.57047 3.82161 5.84682Z" fill="#221F20" stroke="#221F20" stroke-width="0.3"/>
<path d="M12.1724 8.10639C13.6286 8.19554 14.9065 8.9385 15.6791 10.1272C16.4221 11.2862 16.6004 12.683 16.1844 13.9906C16.0952 14.2283 16.2438 14.4661 16.4518 14.5552C16.5113 14.585 16.541 14.585 16.6004 14.585C16.7787 14.585 16.957 14.4661 17.0165 14.2878C17.5514 12.7127 17.3137 11.0188 16.4221 9.65174C15.5008 8.22526 13.9258 7.304 12.2318 7.21484C11.9941 7.21484 11.7861 7.39315 11.7563 7.6309C11.7563 7.89836 11.9347 8.10639 12.1724 8.10639Z" fill="#221F20" stroke="#221F20" stroke-width="0.3"/>
<path d="M12.7964 4.80647C15.1442 5.07394 17.1947 6.35182 18.4726 8.31322C19.7208 10.2152 20.0774 12.5629 19.4236 14.7621C19.3642 14.9998 19.483 15.2376 19.7208 15.3267C19.7505 15.3267 19.8099 15.3564 19.8397 15.3564C20.0477 15.3564 20.226 15.2376 20.2557 15.0295C20.9689 12.5926 20.5529 9.97744 19.1859 7.86745C17.7594 5.6683 15.4414 4.24183 12.8559 3.94465C12.6181 3.91493 12.3804 4.09324 12.3507 4.33098C12.321 4.56873 12.5587 4.77676 12.7964 4.80647Z" fill="#221F20" stroke="#221F20" stroke-width="0.3"/>
<path d="M13.4208 1.89479C16.5115 2.34056 19.2753 4.09393 20.999 6.70913C22.6632 9.2649 23.1684 12.4447 22.366 15.4166C22.3066 15.6543 22.4552 15.8921 22.6929 15.9515C22.7226 15.9515 22.7821 15.9812 22.8118 15.9812C23.0198 15.9812 23.1981 15.8623 23.2278 15.6543C24.0897 12.4447 23.5547 8.99743 21.7419 6.23364C19.8697 3.3807 16.8979 1.47873 13.5397 1.00324C13.302 0.973522 13.0642 1.15183 13.0345 1.38958C13.0048 1.62732 13.1831 1.86507 13.4208 1.89479Z" fill="#221F20" stroke="#221F20" stroke-width="0.3"/>
</svg>
