<svg width="250" height="38" viewBox="0 0 250 38" fill="none" xmlns="http://www.w3.org/2000/svg">
<path d="M51.2785 0L35.3682 37.65H44.2371L47.6771 29.081H60.5236L64.0174 37.65H72.9938L56.9761 0H51.2785ZM50.6872 21.6367L54.1272 13.1213L57.5136 21.6367H50.6872Z" fill="white"/>
<path d="M133.625 0H122.821L112.232 12.8535V0H103.793V37.65H112.232V23.6718L123.95 37.65H134.7L118.037 18.2091L133.625 0Z" fill="white"/>
<path d="M135.506 37.65H161.145V29.8308H143.945V21.958H156.953V14.2995H143.945V7.76565H161.145V0H135.506V37.65Z" fill="white"/>
<path d="M162.973 7.8192H173.293V37.65H181.732V7.8192H192.052V0H162.973V7.8192Z" fill="white"/>
<path d="M194.041 37.65H219.734V29.8308H202.48V21.958H215.541V14.2995H202.48V7.76565H219.734V0H194.041V37.65Z" fill="white"/>
<path d="M99.8156 29.8308C98.6868 29.8308 97.6118 29.6166 96.698 29.2417C96.6442 29.2417 96.6442 29.1881 96.5905 29.1881C96.5367 29.1881 96.483 29.1346 96.4292 29.081C96.3217 29.0275 96.1605 28.9739 96.053 28.9203C94.1717 28.0099 92.7204 26.5103 91.6992 24.3145C93.9567 23.6183 95.7842 22.4936 97.2355 20.994C98.2568 19.9765 99.0093 18.6911 99.5468 17.2986C100.084 15.9062 100.353 14.1924 100.353 12.2108C100.353 10.1757 99.9768 8.35476 99.1705 6.69452C97.0205 2.24936 92.2904 0 85.0878 0H73.5851V37.65H82.024V25.1179H83.2603C84.174 28.2777 85.7866 31.009 87.9903 33.2048C90.8929 36.1504 94.4942 37.65 98.6868 37.65H101.536V29.8308H99.8156ZM90.2479 16.3882C89.1729 17.2451 87.2916 17.7271 84.7653 17.7271H82.024V7.44431H85.1415C86.4316 7.44431 87.5603 7.60498 88.4204 7.87276C90.6779 8.56899 91.6992 9.96145 91.6992 12.425C91.7529 14.2995 91.2692 15.5849 90.2479 16.3882Z" fill="white"/>
<path d="M247.792 29.8308C246.663 29.8308 245.588 29.563 244.674 29.2417C244.621 29.2417 244.621 29.1881 244.567 29.1881C244.513 29.1881 244.459 29.1346 244.406 29.081C244.298 29.0275 244.137 28.9739 244.029 28.9203C242.148 28.0099 240.697 26.5103 239.675 24.3145C241.933 23.6183 243.761 22.4936 245.212 20.994C246.233 19.9765 246.986 18.6911 247.523 17.2986C248.061 15.9062 248.329 14.1924 248.329 12.2108C248.329 10.1757 247.953 8.35476 247.147 6.69452C244.997 2.24936 240.267 0 233.064 0H221.561V37.65H230.054V25.1179H231.29C232.204 28.2777 233.817 31.009 236.02 33.2048C238.923 36.1504 242.524 37.65 246.717 37.65H249.566V29.8308H247.792ZM238.278 16.3882C237.203 17.2451 235.322 17.7271 232.795 17.7271H230.054V7.44431H233.172C234.462 7.44431 235.59 7.60498 236.45 7.87276C238.708 8.56899 239.729 9.96145 239.729 12.425C239.729 14.2995 239.245 15.5849 238.278 16.3882Z" fill="white"/>
<path d="M25.7467 1.12468C25.263 6.15896 21.2854 8.40832 17.3078 8.40832C13.3302 8.40832 9.29892 6.10541 8.86891 0.964011V0H0V37.65H8.92266V15.21C11.3952 16.4953 14.244 17.1915 17.3616 17.1915C20.4791 17.1915 23.3279 16.4953 25.8005 15.21V37.65H34.7231V0H25.7467V1.12468Z" fill="white"/>
</svg>
